<?xml version="1.0" encoding="UTF-8"?>
<svg id="a" data-name="Layer 1" xmlns="http://www.w3.org/2000/svg" width="140" height="30" viewBox="0 0 140 30">
  <g>
    <path d="m9.67,1.97h1.43c2,0,3.63,1.62,3.63,3.63v5.06H6.04v-5.06c0-2,1.62-3.63,3.63-3.63Z" fill="#fff" stroke-width="0"/>
    <rect x="6.04" y="10.66" width="8.69" height="8.69" fill="#fff" stroke-width="0"/>
    <path d="m14.73,10.66h7.1c2,0,3.63,1.62,3.63,3.63v1.43c0,2-1.62,3.63-3.63,3.63h-7.1v-8.69h0Z" fill="#fff" stroke-width="0"/>
    <path d="m6.04,19.34h8.69v5.06c0,2-1.62,3.63-3.63,3.63h-1.43c-2,0-3.63-1.62-3.63-3.63v-5.06h0Z" fill="#fff" stroke-width="0"/>
  </g>
  <g>
    <path d="m40.02,24.68c-.23-.27-.27-.65-.18-.99v-.07c-.02-3.4-.02-6.8-.02-10.18,0-.47,0-.92-.02-1.37-.02-.54-.14-1.1,0-1.62v-.04c-.11-.54.14-1.15.74-1.37.2-.09.45-.09.68-.07,1.4.16,2.79-.07,4.21-.07,1.04-.02,2.07,0,3.13-.02,1.15-.02,1.73,1.37.86,2.14-.23.18-.5.29-.79.29-1.15.02-2.3,0-3.45.02-.99.02-1.98.09-2.97.09.05.65.05,1.33.05,1.98v1.82c1.69-.23,3.42-.23,5.11-.14.38.02.72.34.92.65.38.63-.07,1.62-.81,1.73-.2.02-.41.04-.61.04-1.4-.07-2.81-.07-4.19.11-.16.02-.29.05-.43.07,0,1.64,0,3.29.02,4.93.83-.09,1.67-.14,2.52-.16,1.4-.04,2.81.05,4.23.05.23,0,.45.11.63.25.79.52.54,1.91-.38,2.12-.2.04-.41.07-.61.07-1.04,0-2.09-.04-3.15-.04-1.13,0-2.25.07-3.38.18-.38.02-.74.09-1.13.11-.38.05-.77-.23-.99-.52Z" fill="#fff" stroke-width="0"/>
    <path d="m51.41,24.43c-.09-.52.2-1.06.45-1.51.97-1.94,1.87-3.92,2.64-5.97.36-1.01.74-2.03,1.08-3.04.45-1.33.9-2.66,1.58-3.87.2-.38.5-.79.88-.97.79-.38,1.62.09,1.98.88.29.61.47,1.26.7,1.89.34.99.7,1.98,1.01,2.97.52,1.6.99,3.22,1.58,4.8.45,1.22.99,2.41,1.49,3.6.52,1.24-.83,2.25-1.91,1.46-.23-.18-.31-.45-.43-.7-.32-.74-.65-1.49-.95-2.23-.2-.47-.38-.95-.54-1.42-.07.02-.14.07-.2.09-.18.04-.95-.02-1.13-.04-.77,0-1.53-.02-2.3,0-.54.02-1.08.09-1.62.07-.54,1.24-1.13,2.46-1.76,3.69-.04.09-.29.68-.36.77-.61.88-2,.56-2.18-.47Zm5.29-6.46h.34c.97-.04,1.91-.04,2.86,0h.27c-.2-.61-.41-1.24-.59-1.85-.34-1.08-.72-2.14-1.08-3.2-.27.68-.5,1.37-.72,2.07-.34.99-.7,2-1.08,2.97Z" fill="#fff" stroke-width="0"/>
    <path d="m75.33,25.38c-.36-.04-.63-.23-.81-.5-.09-.05-.18-.11-.27-.2-.25-.27-.34-.65-.5-.97-.38-.88-.81-1.73-1.17-2.61-.92-2.16-1.89-4.28-2.93-6.37v1.15c.02,2.61-.02,5.2.02,7.81.02.92-.95,1.53-1.78,1.1-.41-.2-.65-.61-.65-1.06-.02-1.35-.04-2.7-.04-4.05.02-2.79-.02-5.59,0-8.38.02-.52-.02-1.04.14-1.53.09-.36.47-.65.83-.77.04-.02.11-.04.18-.04.61-.29,1.49.07,1.64.72.02.07.09.38.11.43.11.27.25.52.38.77,1.58,3.09,3.06,6.24,4.44,9.44.18.43.36.83.56,1.26.27-.56.52-1.13.77-1.69.45-1.04.95-2.05,1.37-3.09.34-.74.61-1.51.92-2.27.61-1.42,1.37-2.79,1.89-4.26.11-.29.25-.61.5-.79.23-.2.56-.32.88-.29.07.02.16.04.25.07.56-.04,1.15.32,1.28.97.02.18,0,.41-.02.61-.04,1.31.02,2.63.04,3.96.02,1.06.02,2.12.07,3.18.07,1.15.16,2.3.2,3.45.02.81.02,1.6.07,2.41.07.99-.99,1.64-1.82,1.15-.36-.2-.59-.59-.61-1.01-.07-1.04-.07-2.12-.11-3.18-.07-1.26-.18-2.52-.2-3.78,0-.61-.02-1.22-.02-1.8-.32.68-.56,1.4-.86,2.09-.5,1.19-1.08,2.37-1.6,3.56-.59,1.33-1.17,2.68-1.91,3.94-.27.43-.74.68-1.24.59Z" fill="#fff" stroke-width="0"/>
    <path d="m96,25.6c-.52-.16-1.04-.38-1.46-.74-.61-.5-1.1-1.19-1.46-1.89-.32-.63-.56-1.33-.65-2.03-.05-.41.27-.88.63-1.1.7-.38,1.58,0,1.78.77.14.5.34.97.59,1.4.18.34.38.68.68.92.59.47,1.98.36,2.66.07.72-.34,1.26-1.15,1.44-1.91.18-.72-.02-1.58-.47-2.16-.27-.29-.68-.47-1.06-.56-.54-.13-1.13-.18-1.69-.25-.29-.04-.63-.14-.83-.36-.56-.52-.59-1.42,0-1.91.16-.11.34-.2.52-.27.86-.34,1.78-.59,2.5-1.19.68-.56.79-1.55.18-2.21-.74-.81-1.98-1.1-3-.68-.65.27-1.17.83-1.6,1.42-.02.04.02.18.05.25.04.2-.02.41-.09.61-.34.83-1.46,1.01-2.05.32-.41-.47-.43-1.22-.27-1.8.11-.41.36-.74.61-1.06.68-.83,1.51-1.64,2.52-2.03,1.58-.61,3.38-.38,4.77.56.77.52,1.44,1.31,1.73,2.21.23.74.25,1.6,0,2.32-.27.86-.81,1.64-1.51,2.16.47.27.92.63,1.24,1.08.63.88.97,1.89.99,2.97.02,1.78-1.04,3.69-2.59,4.57-1.22.68-2.79.9-4.14.54Z" fill="#fff" stroke-width="0"/>
    <path d="m108.63,24.32c-.2-1.35-.32-2.7-.41-4.05-.16-2.66-.16-5.34-.07-8-.54.36-1.1.74-1.71,1.01-.36.18-.83.29-1.24.16-.2-.07-.38-.2-.54-.36-.18-.18-.25-.45-.27-.68-.07-.38.14-.83.45-1.06.23-.18.52-.23.79-.36.27-.14.54-.32.79-.5.63-.41,1.26-.86,1.89-1.28.11-.07.23-.16.34-.2.72-.38,1.62-.09,1.89.68.16.45.11.95.09,1.42-.11,4.28-.18,8.58.41,12.79.07.41-.07.9-.38,1.17-.72.65-1.87.23-2.03-.74Z" fill="#fff" stroke-width="0"/>
    <path d="m117.32,25.6c-.52-.16-1.04-.38-1.46-.74-.61-.5-1.1-1.19-1.46-1.89-.32-.63-.56-1.33-.65-2.03-.04-.41.27-.88.63-1.1.7-.38,1.58,0,1.78.77.14.5.34.97.59,1.4.18.34.38.68.68.92.59.47,1.98.36,2.66.07.72-.34,1.26-1.15,1.44-1.91.18-.72-.02-1.58-.47-2.16-.27-.29-.68-.47-1.06-.56-.54-.13-1.13-.18-1.69-.25-.29-.04-.63-.14-.83-.36-.56-.52-.59-1.42,0-1.91.16-.11.34-.2.52-.27.86-.34,1.78-.59,2.5-1.19.68-.56.79-1.55.18-2.21-.74-.81-1.98-1.1-3-.68-.65.27-1.17.83-1.6,1.42-.02.04.02.18.05.25.04.2-.02.41-.09.61-.34.83-1.46,1.01-2.05.32-.41-.47-.43-1.22-.27-1.8.11-.41.36-.74.61-1.06.68-.83,1.51-1.64,2.52-2.03,1.58-.61,3.38-.38,4.77.56.77.52,1.44,1.31,1.73,2.21.23.74.25,1.6,0,2.32-.27.86-.81,1.64-1.51,2.16.47.27.92.63,1.24,1.08.63.88.97,1.89.99,2.97.02,1.78-1.04,3.69-2.59,4.57-1.22.68-2.79.9-4.14.54Z" fill="#fff" stroke-width="0"/>
  </g>
  <circle cx="129.73" cy="6.9" r="3.76" fill="none" stroke="#fff" stroke-miterlimit="10" stroke-width=".5"/>
  <path d="m130.74,7.82s0,.05,0,.07c0,.02,0,.04,0,.05,0,.01,0,.03-.02.04s-.02.02-.03.04c-.02.02-.05.04-.1.07-.05.03-.12.06-.19.1-.08.03-.16.06-.26.08-.1.02-.21.03-.32.03-.2,0-.38-.03-.55-.1s-.3-.17-.42-.3c-.11-.13-.2-.29-.26-.49-.06-.19-.09-.42-.09-.67s.03-.49.1-.69.16-.37.28-.51.26-.25.43-.32c.17-.07.35-.11.56-.11.09,0,.18,0,.26.03.08.02.16.04.24.06.07.03.14.06.19.09s.09.06.12.08c.02.02.04.04.04.05,0,.01.01.02.02.04,0,.02,0,.03,0,.05,0,.02,0,.05,0,.07,0,.03,0,.06,0,.08,0,.02,0,.04-.01.06s-.01.03-.02.03c0,0-.02.01-.03.01-.02,0-.05-.02-.09-.05-.04-.03-.09-.07-.16-.1-.06-.04-.14-.07-.23-.1s-.2-.05-.33-.05c-.14,0-.26.03-.38.08s-.21.14-.29.24-.14.24-.19.39-.07.33-.07.53.02.37.06.52.1.28.18.38.18.18.29.23c.12.05.25.08.39.08.12,0,.23-.02.32-.05.09-.03.17-.06.24-.1.07-.04.12-.07.16-.1.04-.03.07-.05.1-.05.01,0,.02,0,.03,0s.01.01.02.03c0,.01,0,.03.01.06s0,.05,0,.09Z" fill="#fff" stroke-width="0"/>
</svg>